{
  "accessors": [
    {
      "bufferView": 2,
      "componentType": 5126,
      "count": 20,
      "max": [
        1.5044169425964355,
        -6.0535049438476562,
        -1.2528389692306519
      ],
      "min": [
        -1.5044169425964355,
        -6.7866702079772949,
        -1.9309380054473877
      ],
      "type": "VEC3"
    },
    {
      "bufferView": 2,
      "byteOffset": 240,
      "componentType": 5126,
      "count": 20,
      "max": [
        0.98535233736038208,
        0.33842763304710388,
        0.62955605983734131
      ],
      "min": [
        -0.98535233736038208,
        -0.17951083183288574,
        -0.17057101428508759
      ],
      "type": "VEC3"
    },
    {
      "bufferView": 1,
      "componentType": 5126,
      "count": 20,
      "max": [
        1.1245059967041016,
        0.31208100914955139
      ],
      "min": [
        1.0420969724655151,
        0.020961999893188477
      ],
      "type": "VEC2"
    },
    {
      "bufferView": 0,
      "componentType": 5125,
      "count": 36,
      "max": [
        19
      ],
      "min": [
        0
      ],
      "type": "SCALAR"
    },
    {
      "bufferView": 2,
      "byteOffset": 480,
      "componentType": 5126,
      "count": 10704,
      "max": [
        2.981050968170166,
        5.2500591278076172,
        -0.32618001103401184
      ],
      "min": [
        -2.981050968170166,
        2.8373579978942871,
        -2.7388811111450195
      ],
      "type": "VEC3"
    },
    {
      "bufferView": 2,
      "byteOffset": 128928,
      "componentType": 5126,
      "count": 10704,
      "max": [
        0.92346954345703125,
        0.99983954429626465,
        0.99977052211761475
      ],
      "min": [
        -0.92347139120101929,
        -0.99977022409439087,
        -0.99987733364105225
      ],
      "type": "VEC3"
    },
    {
      "bufferView": 1,
      "byteOffset": 160,
      "componentType": 5126,
      "count": 10704,
      "max": [
        2,
        1.9643579721450806
      ],
      "min": [
        1,
        1
      ],
      "type": "VEC2"
    },
    {
      "bufferView": 0,
      "byteOffset": 144,
      "componentType": 5125,
      "count": 15984,
      "max": [
        10703
      ],
      "min": [
        0
      ],
      "type": "SCALAR"
    },
    {
      "bufferView": 2,
      "byteOffset": 257376,
      "componentType": 5126,
      "count": 10704,
      "max": [
        2.981050968170166,
        -4.443911075592041,
        -0.32618001103401184
      ],
      "min": [
        -2.981050968170166,
        -6.8566107749938965,
        -2.7388811111450195
      ],
      "type": "VEC3"
    },
    {
      "bufferView": 2,
      "byteOffset": 385824,
      "componentType": 5126,
      "count": 10704,
      "max": [
        0.923470139503479,
        0.99983954429626465,
        0.99977052211761475
      ],
      "min": [
        -0.92347139120101929,
        -0.9997706413269043,
        -0.99987733364105225
      ],
      "type": "VEC3"
    },
    {
      "bufferView": 1,
      "byteOffset": 85792,
      "componentType": 5126,
      "count": 10704,
      "max": [
        2,
        1.9643579721450806
      ],
      "min": [
        1,
        1
      ],
      "type": "VEC2"
    },
    {
      "bufferView": 0,
      "byteOffset": 64080,
      "componentType": 5125,
      "count": 15984,
      "max": [
        10703
      ],
      "min": [
        0
      ],
      "type": "SCALAR"
    },
    {
      "bufferView": 2,
      "byteOffset": 514272,
      "componentType": 5126,
      "count": 9996,
      "max": [
        3.0013630390167236,
        5.2501869201660156,
        -0.32605201005935669
      ],
      "min": [
        -3.0013630390167236,
        -6.8567390441894531,
        -2.7390079498291016
      ],
      "type": "VEC3"
    },
    {
      "bufferView": 2,
      "byteOffset": 634224,
      "componentType": 5126,
      "count": 9996,
      "max": [
        1,
        1,
        0.99950653314590454
      ],
      "min": [
        -1,
        -1,
        -0.99981409311294556
      ],
      "type": "VEC3"
    },
    {
      "bufferView": 1,
      "byteOffset": 171424,
      "componentType": 5126,
      "count": 9996,
      "max": [
        1.9997409582138062,
        1.9465290307998657
      ],
      "min": [
        1,
        1
      ],
      "type": "VEC2"
    },
    {
      "bufferView": 0,
      "byteOffset": 128016,
      "componentType": 5125,
      "count": 27642,
      "max": [
        9995
      ],
      "min": [
        0
      ],
      "type": "SCALAR"
    },
    {
      "bufferView": 2,
      "byteOffset": 754176,
      "componentType": 5126,
      "count": 1632,
      "max": [
        2.981050968170166,
        5.2308259010314941,
        0.43661600351333618
      ],
      "min": [
        -2.981050968170166,
        -6.8282051086425781,
        -2.7202169895172119
      ],
      "type": "VEC3"
    },
    {
      "bufferView": 2,
      "byteOffset": 773760,
      "componentType": 5126,
      "count": 1632,
      "max": [
        0.33453407883644104,
        0.99829047918319702,
        0.99978089332580566
      ],
      "min": [
        -0.99999266862869263,
        -0.98548686504364014,
        -0.99978089332580566
      ],
      "type": "VEC3"
    },
    {
      "bufferView": 1,
      "byteOffset": 251392,
      "componentType": 5126,
      "count": 1632,
      "max": [
        1.9951870441436768,
        1.9178680181503296
      ],
      "min": [
        1,
        0.027343999594449997
      ],
      "type": "VEC2"
    },
    {
      "bufferView": 0,
      "byteOffset": 238584,
      "componentType": 5125,
      "count": 3360,
      "max": [
        1631
      ],
      "min": [
        0
      ],
      "type": "SCALAR"
    },
    {
      "bufferView": 2,
      "byteOffset": 793344,
      "componentType": 5126,
      "count": 9985,
      "max": [
        2.9800589084625244,
        7.5825691223144531,
        1.2890690565109253
      ],
      "min": [
        -3.0013630390167236,
        -7.3740048408508301,
        -2.7390079498291016
      ],
      "type": "VEC3"
    },
    {
      "bufferView": 2,
      "byteOffset": 913164,
      "componentType": 5126,
      "count": 9985,
      "max": [
        1,
        1,
        1
      ],
      "min": [
        -1,
        -1,
        -0.99999988079071045
      ],
      "type": "VEC3"
    },
    {
      "bufferView": 1,
      "byteOffset": 264448,
      "componentType": 5126,
      "count": 9985,
      "max": [
        1.9999799728393555,
        1.9911019802093506
      ],
      "min": [
        1,
        0.013509999960660934
      ],
      "type": "VEC2"
    },
    {
      "bufferView": 0,
      "byteOffset": 252024,
      "componentType": 5125,
      "count": 29076,
      "max": [
        9984
      ],
      "min": [
        0
      ],
      "type": "SCALAR"
    },
    {
      "bufferView": 2,
      "byteOffset": 1032984,
      "componentType": 5126,
      "count": 9954,
      "max": [
        3.0319869518280029,
        7.6460328102111816,
        2.3821520805358887
      ],
      "min": [
        -3.0319869518280029,
        -7.6092119216918945,
        -1.8702640533447266
      ],
      "type": "VEC3"
    },
    {
      "bufferView": 2,
      "byteOffset": 1152432,
      "componentType": 5126,
      "count": 9954,
      "max": [
        1,
        1,
        1
      ],
      "min": [
        -1,
        -1,
        -1
      ],
      "type": "VEC3"
    },
    {
      "bufferView": 1,
      "byteOffset": 344328,
      "componentType": 5126,
      "count": 9954,
      "max": [
        2.9903340339660645,
        1.9043869972229004
      ],
      "min": [
        0,
        0
      ],
      "type": "VEC2"
    },
    {
      "bufferView": 0,
      "byteOffset": 368328,
      "componentType": 5125,
      "count": 31572,
      "max": [
        9953
      ],
      "min": [
        0
      ],
      "type": "SCALAR"
    },
    {
      "bufferView": 2,
      "byteOffset": 1271880,
      "componentType": 5126,
      "count": 9869,
      "max": [
        3.1078710556030273,
        7.5626959800720215,
        2.4636499881744385
      ],
      "min": [
        -3.1078710556030273,
        -7.7429990768432617,
        -1.4233779907226562
      ],
      "type": "VEC3"
    },
    {
      "bufferView": 2,
      "byteOffset": 1390308,
      "componentType": 5126,
      "count": 9869,
      "max": [
        1,
        1,
        1
      ],
      "min": [
        -1,
        -1,
        -1
      ],
      "type": "VEC3"
    },
    {
      "bufferView": 1,
      "byteOffset": 423960,
      "componentType": 5126,
      "count": 9869,
      "max": [
        1.9982739686965942,
        1.5133919715881348
      ],
      "min": [
        0.014094999991357327,
        0
      ],
      "type": "VEC2"
    },
    {
      "bufferView": 0,
      "byteOffset": 494616,
      "componentType": 5125,
      "count": 32502,
      "max": [
        9868
      ],
      "min": [
        0
      ],
      "type": "SCALAR"
    },
    {
      "bufferView": 2,
      "byteOffset": 1508736,
      "componentType": 5126,
      "count": 9931,
      "max": [
        2.5318470001220703,
        7.2706379890441895,
        2.5842490196228027
      ],
      "min": [
        -2.5318470001220703,
        -7.0040359497070312,
        -1.6964579820632935
      ],
      "type": "VEC3"
    },
    {
      "bufferView": 2,
      "byteOffset": 1627908,
      "componentType": 5126,
      "count": 9931,
      "max": [
        1,
        1,
        1
      ],
      "min": [
        -1,
        -1,
        -1
      ],
      "type": "VEC3"
    },
    {
      "bufferView": 1,
      "byteOffset": 502912,
      "componentType": 5126,
      "count": 9931,
      "max": [
        1.1964800357818604,
        1.5129649639129639
      ],
      "min": [
        0.010712999850511551,
        0.0020920000970363617
      ],
      "type": "VEC2"
    },
    {
      "bufferView": 0,
      "byteOffset": 624624,
      "componentType": 5125,
      "count": 31170,
      "max": [
        9930
      ],
      "min": [
        0
      ],
      "type": "SCALAR"
    },
    {
      "bufferView": 2,
      "byteOffset": 1747080,
      "componentType": 5126,
      "count": 9926,
      "max": [
        3.0013630390167236,
        4.847383975982666,
        2.5864989757537842
      ],
      "min": [
        -2.8963909149169922,
        -6.7714109420776367,
        -2.6874349117279053
      ],
      "type": "VEC3"
    },
    {
      "bufferView": 2,
      "byteOffset": 1866192,
      "componentType": 5126,
      "count": 9926,
      "max": [
        1,
        1,
        1
      ],
      "min": [
        -1,
        -1,
        -1
      ],
      "type": "VEC3"
    },
    {
      "bufferView": 1,
      "byteOffset": 582360,
      "componentType": 5126,
      "count": 9926,
      "max": [
        1.9847650527954102,
        1.9810839891433716
      ],
      "min": [
        0,
        0.010937999933958054
      ],
      "type": "VEC2"
    },
    {
      "bufferView": 0,
      "byteOffset": 749304,
      "componentType": 5125,
      "count": 33066,
      "max": [
        9925
      ],
      "min": [
        0
      ],
      "type": "SCALAR"
    },
    {
      "bufferView": 2,
      "byteOffset": 1985304,
      "componentType": 5126,
      "count": 9879,
      "max": [
        2.9810309410095215,
        7.2724151611328125,
        0.98667502403259277
      ],
      "min": [
        -2.8963909149169922,
        -7.4850749969482422,
        -2.7390079498291016
      ],
      "type": "VEC3"
    },
    {
      "bufferView": 2,
      "byteOffset": 2103852,
      "componentType": 5126,
      "count": 9879,
      "max": [
        1,
        1,
        1
      ],
      "min": [
        -1,
        -1,
        -1
      ],
      "type": "VEC3"
    },
    {
      "bufferView": 1,
      "byteOffset": 661768,
      "componentType": 5126,
      "count": 9879,
      "max": [
        2.9999990463256836,
        1.9998229742050171
      ],
      "min": [
        0.070035003125667572,
        0
      ],
      "type": "VEC2"
    },
    {
      "bufferView": 0,
      "byteOffset": 881568,
      "componentType": 5125,
      "count": 29196,
      "max": [
        9878
      ],
      "min": [
        0
      ],
      "type": "SCALAR"
    },
    {
      "bufferView": 2,
      "byteOffset": 2222400,
      "componentType": 5126,
      "count": 9988,
      "max": [
        3.0905880928039551,
        7.5562090873718262,
        1.4657959938049316
      ],
      "min": [
        -3.0905880928039551,
        -7.4538941383361816,
        -2.0387520790100098
      ],
      "type": "VEC3"
    },
    {
      "bufferView": 2,
      "byteOffset": 2342256,
      "componentType": 5126,
      "count": 9988,
      "max": [
        1,
        1,
        1
      ],
      "min": [
        -1,
        -1,
        -1
      ],
      "type": "VEC3"
    },
    {
      "bufferView": 1,
      "byteOffset": 740800,
      "componentType": 5126,
      "count": 9988,
      "max": [
        2.9999990463256836,
        1.9813350439071655
      ],
      "min": [
        1,
        0
      ],
      "type": "VEC2"
    },
    {
      "bufferView": 0,
      "byteOffset": 998352,
      "componentType": 5125,
      "count": 32100,
      "max": [
        9987
      ],
      "min": [
        0
      ],
      "type": "SCALAR"
    },
    {
      "bufferView": 2,
      "byteOffset": 2462112,
      "componentType": 5126,
      "count": 9807,
      "max": [
        3.0389959812164307,
        7.304203987121582,
        0.83629900217056274
      ],
      "min": [
        -3.0389959812164307,
        -7.1869368553161621,
        -2.22011399269104
      ],
      "type": "VEC3"
    },
    {
      "bufferView": 2,
      "byteOffset": 2579796,
      "componentType": 5126,
      "count": 9807,
      "max": [
        1,
        1,
        1
      ],
      "min": [
        -1,
        -1,
        -1
      ],
      "type": "VEC3"
    },
    {
      "bufferView": 1,
      "byteOffset": 820704,
      "componentType": 5126,
      "count": 9807,
      "max": [
        2.9999980926513672,
        1.9998229742050171
      ],
      "min": [
        1,
        0
      ],
      "type": "VEC2"
    },
    {
      "bufferView": 0,
      "byteOffset": 1126752,
      "componentType": 5125,
      "count": 32364,
      "max": [
        9806
      ],
      "min": [
        0
      ],
      "type": "SCALAR"
    },
    {
      "bufferView": 2,
      "byteOffset": 2697480,
      "componentType": 5126,
      "count": 3092,
      "max": [
        2.5899090766906738,
        7.315000057220459,
        0.50590801239013672
      ],
      "min": [
        -2.5899090766906738,
        -6.7064070701599121,
        -2.0387520790100098
      ],
      "type": "VEC3"
    },
    {
      "bufferView": 2,
      "byteOffset": 2734584,
      "componentType": 5126,
      "count": 3092,
      "max": [
        1,
        1,
        1
      ],
      "min": [
        -1,
        -1,
        -1
      ],
      "type": "VEC3"
    },
    {
      "bufferView": 1,
      "byteOffset": 899160,
      "componentType": 5126,
      "count": 3092,
      "max": [
        2.9999980926513672,
        1.9813350439071655
      ],
      "min": [
        0,
        0
      ],
      "type": "VEC2"
    },
    {
      "bufferView": 0,
      "byteOffset": 1256208,
      "componentType": 5125,
      "count": 10074,
      "max": [
        3091
      ],
      "min": [
        0
      ],
      "type": "SCALAR"
    }
  ],
  "asset": {
    "extras": {
      "author": "Oscar Martinez (https://sketchfab.com/ostinez)",
      "license": "CC-BY-4.0 (http://creativecommons.org/licenses/by/4.0/)",
      "source": "https://sketchfab.com/3d-models/jeep-gladiator-2019-3036e734a0944821aca8d4434abf4936",
      "title": "Jeep Gladiator 2019"
    },
    "generator": "Sketchfab-9.82.0",
    "version": "2.0"
  },
  "bufferViews": [
    {
      "buffer": 0,
      "byteLength": 1296504,
      "byteOffset": 0,
      "name": "floatBufferViews",
      "target": 34963
    },
    {
      "buffer": 0,
      "byteLength": 923896,
      "byteOffset": 1296504,
      "byteStride": 8,
      "name": "floatBufferViews",
      "target": 34962
    },
    {
      "buffer": 0,
      "byteLength": 2771688,
      "byteOffset": 2220400,
      "byteStride": 12,
      "name": "floatBufferViews",
      "target": 34962
    }
  ],
  "buffers": [
    {
      "byteLength": 4992088,
      "uri": "scene.bin"
    }
  ],
  "materials": [
    {
      "doubleSided": true,
      "name": "material_0",
      "pbrMetallicRoughness": {
        "baseColorFactor": [
          0.69999999999999996,
          0.69999999999999996,
          0.69999999999999996,
          1
        ],
        "metallicFactor": 0,
        "roughnessFactor": 0.59999999999999998
      }
    }
  ],
  "meshes": [
    {
      "primitives": [
        {
          "attributes": {
            "NORMAL": 1,
            "POSITION": 0,
            "TEXCOORD_0": 2
          },
          "indices": 3,
          "material": 0,
          "mode": 4
        }
      ]
    },
    {
      "primitives": [
        {
          "attributes": {
            "NORMAL": 5,
            "POSITION": 4,
            "TEXCOORD_0": 6
          },
          "indices": 7,
          "material": 0,
          "mode": 4
        }
      ]
    },
    {
      "primitives": [
        {
          "attributes": {
            "NORMAL": 9,
            "POSITION": 8,
            "TEXCOORD_0": 10
          },
          "indices": 11,
          "material": 0,
          "mode": 4
        }
      ]
    },
    {
      "primitives": [
        {
          "attributes": {
            "NORMAL": 13,
            "POSITION": 12,
            "TEXCOORD_0": 14
          },
          "indices": 15,
          "material": 0,
          "mode": 4
        }
      ]
    },
    {
      "primitives": [
        {
          "attributes": {
            "NORMAL": 17,
            "POSITION": 16,
            "TEXCOORD_0": 18
          },
          "indices": 19,
          "material": 0,
          "mode": 4
        }
      ]
    },
    {
      "primitives": [
        {
          "attributes": {
            "NORMAL": 21,
            "POSITION": 20,
            "TEXCOORD_0": 22
          },
          "indices": 23,
          "material": 0,
          "mode": 4
        }
      ]
    },
    {
      "primitives": [
        {
          "attributes": {
            "NORMAL": 25,
            "POSITION": 24,
            "TEXCOORD_0": 26
          },
          "indices": 27,
          "material": 0,
          "mode": 4
        }
      ]
    },
    {
      "primitives": [
        {
          "attributes": {
            "NORMAL": 29,
            "POSITION": 28,
            "TEXCOORD_0": 30
          },
          "indices": 31,
          "material": 0,
          "mode": 4
        }
      ]
    },
    {
      "primitives": [
        {
          "attributes": {
            "NORMAL": 33,
            "POSITION": 32,
            "TEXCOORD_0": 34
          },
          "indices": 35,
          "material": 0,
          "mode": 4
        }
      ]
    },
    {
      "primitives": [
        {
          "attributes": {
            "NORMAL": 37,
            "POSITION": 36,
            "TEXCOORD_0": 38
          },
          "indices": 39,
          "material": 0,
          "mode": 4
        }
      ]
    },
    {
      "primitives": [
        {
          "attributes": {
            "NORMAL": 41,
            "POSITION": 40,
            "TEXCOORD_0": 42
          },
          "indices": 43,
          "material": 0,
          "mode": 4
        }
      ]
    },
    {
      "primitives": [
        {
          "attributes": {
            "NORMAL": 45,
            "POSITION": 44,
            "TEXCOORD_0": 46
          },
          "indices": 47,
          "material": 0,
          "mode": 4
        }
      ]
    },
    {
      "primitives": [
        {
          "attributes": {
            "NORMAL": 49,
            "POSITION": 48,
            "TEXCOORD_0": 50
          },
          "indices": 51,
          "material": 0,
          "mode": 4
        }
      ]
    },
    {
      "primitives": [
        {
          "attributes": {
            "NORMAL": 53,
            "POSITION": 52,
            "TEXCOORD_0": 54
          },
          "indices": 55,
          "material": 0,
          "mode": 4
        }
      ]
    }
  ],
  "nodes": [
    {
      "children": [
        1
      ],
      "name": "RootNode (gltf orientation matrix)",
      "rotation": [
        -0.70710678118654746,
        -0,
        -0,
        0.70710678118654757
      ]
    },
    {
      "children": [
        2
      ],
      "matrix": [
        0.35408258438110352,
        0,
        0,
        0,
        0,
        0.35408258438110352,
        0,
        0,
        0,
        0,
        0.35408258438110352,
        0,
        0,
        0,
        0,
        1
      ],
      "name": "RootNode (model correction matrix)"
    },
    {
      "children": [
        3,
        4,
        5,
        6,
        7,
        8,
        9,
        10,
        11,
        12,
        13,
        14,
        15,
        16
      ],
      "name": "Jeep.obj.cleaner.materialmerger.gles"
    },
    {
      "mesh": 0,
      "name": ""
    },
    {
      "mesh": 1,
      "name": ""
    },
    {
      "mesh": 2,
      "name": ""
    },
    {
      "mesh": 3,
      "name": ""
    },
    {
      "mesh": 4,
      "name": ""
    },
    {
      "mesh": 5,
      "name": ""
    },
    {
      "mesh": 6,
      "name": ""
    },
    {
      "mesh": 7,
      "name": ""
    },
    {
      "mesh": 8,
      "name": ""
    },
    {
      "mesh": 9,
      "name": ""
    },
    {
      "mesh": 10,
      "name": ""
    },
    {
      "mesh": 11,
      "name": ""
    },
    {
      "mesh": 12,
      "name": ""
    },
    {
      "mesh": 13,
      "name": ""
    }
  ],
  "scene": 0,
  "scenes": [
    {
      "name": "OSG_Scene",
      "nodes": [
        0
      ]
    }
  ]
}

